<svg width="179" height="62" viewBox="0 0 179 62" fill="none" xmlns="http://www.w3.org/2000/svg">
<path d="M13.6286 13.7787H21.7047L31.4687 32.5055V13.7787H39.6871V47.6175H31.7333L21.8471 28.7265V47.6175H13.6286V13.7787Z" fill="black"/>
<path d="M41.84 47.6175L54.0414 13.7787H62.5024L74.5013 47.6175H66.2367L64.8336 43.3623H51.7101L50.307 47.6175H41.84ZM62.6186 36.8782L58.2729 23.5372L53.9271 36.8782H62.6186Z" fill="black"/>
<path d="M78.1736 21.4785H71.5587V13.576H93.2073V21.4785H86.392V47.4149H78.1736V21.4785Z" fill="black"/>
<path d="M96.2141 13.7787H104.433V47.6175H96.2141V13.7787Z" fill="black"/>
<path d="M115.153 13.7787L121.741 35.2835L128.168 13.7787H136.831L126.093 47.6175H117.307L106.447 13.7787H115.153Z" fill="black"/>
<path d="M132.722 47.6175L144.923 13.7787H153.384L165.383 47.6175H157.119L155.716 43.3623H142.592L141.189 47.6175H132.722ZM153.499 36.8782L149.153 23.5372L144.807 36.8782H153.499Z" fill="black"/>
<path d="M66.5715 55.4855H67.5156C69.8889 55.4855 70.9634 56.9444 70.9634 58.683C70.9634 60.4215 69.8889 61.8885 67.5156 61.8885H66.5715V55.4855ZM67.5617 61.2604C69.4119 61.2604 70.342 60.1662 70.342 58.685C70.342 57.2038 69.4139 56.1157 67.5617 56.1157H67.1929V61.2604H67.5617Z" fill="black"/>
<path d="M72.2001 55.5017H75.5236V56.1076H72.8215V58.296H75.3091V58.8694H72.8215V61.2827H75.5236V61.8885H72.2001V55.5017Z" fill="black"/>
<path d="M76.2853 59.84H76.8987C76.9067 60.7315 77.4519 61.4083 78.4101 61.4083C79.27 61.4083 79.8694 60.8734 79.8694 60.1277C79.8694 59.2503 79.1558 59.0173 78.2958 58.7782C77.3738 58.5067 76.6381 58.0954 76.6381 57.0093C76.6381 56.0711 77.3597 55.3558 78.4041 55.3558C79.5566 55.3558 80.2382 56.1319 80.2462 57.297L79.6388 57.2889C79.6308 56.4825 79.2239 55.9455 78.4021 55.9455C77.6885 55.9455 77.2435 56.3872 77.2435 57.0174C77.2435 57.7691 77.7586 58.0103 78.4943 58.221C79.4685 58.5168 80.4908 58.8187 80.4908 60.1379C80.4908 61.232 79.6228 62 78.4101 62C77.1132 62 76.2913 61.0922 76.2833 59.842L76.2853 59.84Z" fill="black"/>
<path d="M81.6514 55.4855H82.5955C84.9668 55.4855 86.0432 56.9444 86.0432 58.683C86.0432 60.4215 84.9688 61.8885 82.5955 61.8885H81.6514V55.4855ZM82.6416 61.2604C84.4917 61.2604 85.4218 60.1662 85.4218 58.685C85.4218 57.2038 84.4937 56.1157 82.6416 56.1157H82.2728V61.2604H82.6416Z" fill="black"/>
<path d="M87.28 55.5017H90.6035V56.1076H87.9014V58.296H90.389V58.8694H87.9014V61.2827H90.6035V61.8885H87.28V55.5017Z" fill="black"/>
<path d="M94.9432 56.1157L93.961 56.1076L94.1535 55.4936L95.5586 55.5017V61.8885H94.9452V56.1137L94.9432 56.1157Z" fill="black"/>
<path d="M101.446 57.7448C101.454 58.3345 101.332 58.762 100.708 59.6779L99.1968 61.8906H98.4972L99.8863 59.8724C99.6257 59.9656 99.3571 60.0203 99.1186 60.0203C97.7215 60.0203 96.7934 59.0193 96.7934 57.7306C96.7934 56.4419 97.7375 55.3943 99.1186 55.3943C100.5 55.3943 101.43 56.4419 101.446 57.7448ZM99.1186 59.4672C100.095 59.4672 100.83 58.7296 100.83 57.7448C100.83 56.7601 100.093 56.0144 99.1186 56.0144C98.1444 56.0144 97.4067 56.7519 97.4067 57.7448C97.4067 58.7377 98.1444 59.4672 99.1186 59.4672Z" fill="black"/>
<path d="M107.097 57.7448C107.105 58.3345 106.982 58.762 106.359 59.6779L104.847 61.8906H104.148L105.537 59.8724C105.276 59.9656 105.008 60.0203 104.769 60.0203C103.372 60.0203 102.442 59.0193 102.442 57.7306C102.442 56.4419 103.386 55.3943 104.769 55.3943C106.152 55.3943 107.08 56.4419 107.094 57.7448H107.097ZM104.771 59.4672C105.745 59.4672 106.483 58.7296 106.483 57.7448C106.483 56.7601 105.745 56.0144 104.771 56.0144C103.797 56.0144 103.059 56.7519 103.059 57.7448C103.059 58.7377 103.797 59.4672 104.771 59.4672Z" fill="black"/>
<path d="M112.747 57.7448C112.755 58.3345 112.633 58.762 112.01 59.6779L110.498 61.8906H109.801L111.19 59.8724C110.929 59.9656 110.661 60.0203 110.422 60.0203C109.025 60.0203 108.097 59.0193 108.097 57.7306C108.097 56.4419 109.041 55.3943 110.422 55.3943C111.803 55.3943 112.733 56.4419 112.749 57.7448H112.747ZM110.422 59.4672C111.398 59.4672 112.134 58.7296 112.134 57.7448C112.134 56.7601 111.396 56.0144 110.422 56.0144C109.448 56.0144 108.71 56.7519 108.71 57.7448C108.71 58.7377 109.448 59.4672 110.422 59.4672Z" fill="black"/>
<path fill-rule="evenodd" clip-rule="evenodd" d="M0 9.33303C0 4.3976 3.67478 0 8.6013 0H170.399C175.325 0 179 4.39759 179 9.33303V51.7167C179 56.6526 175.325 61.0497 170.397 61.0497H170.394L117.459 60.9909L117.464 56.5331L170.397 56.5919C170.397 56.5919 170.398 56.5919 170.399 56.5919C172.51 56.5907 174.59 54.5932 174.59 51.7167V9.33303C174.59 6.45514 172.508 4.45781 170.399 4.45781H8.6013C6.49202 4.45781 4.4099 6.45513 4.4099 9.33303V51.6579C4.4099 54.5349 6.49075 56.5319 8.59938 56.5331C8.60002 56.5331 8.60066 56.5331 8.6013 56.5331L61.5358 56.4743L61.5406 60.9321L8.60372 60.9909H8.6013C3.67478 60.9909 0 56.5933 0 51.6579V9.33303Z" fill="black"/>
</svg>
