<svg width="180" height="61" viewBox="0 0 180 61" fill="none" xmlns="http://www.w3.org/2000/svg">
    <path d="M13.7047 13.5564H21.826L31.6445 31.9812V13.5564H39.9088V46.8495H31.9105L21.9691 28.2632V46.8495H13.7047V13.5564Z" fill="white"/>
    <path d="M42.0737 46.8495L54.3433 13.5564H62.8515L74.9175 46.8495H66.6068L65.1958 42.6629H51.999L50.588 46.8495H42.0737ZM62.9684 36.2834L58.5984 23.1576L54.2284 36.2834H62.9684Z" fill="white"/>
    <path d="M78.6103 21.1321H71.9585V13.3571H93.728V21.1321H86.8747V46.6501H78.6103V21.1321Z" fill="white"/>
    <path d="M96.7516 13.5564H105.016V46.8495H96.7516V13.5564Z" fill="white"/>
    <path d="M115.796 13.5564L122.422 34.7145L128.884 13.5564H137.596L126.798 46.8495H117.963L107.042 13.5564H115.796Z" fill="white"/>
    <path d="M133.464 46.8495L145.733 13.5564H154.241L166.307 46.8495H157.997L156.586 42.6629H143.389L141.978 46.8495H133.464ZM154.356 36.2834L149.986 23.1576L145.616 36.2834H154.356Z" fill="white"/>
    <path d="M66.9434 54.5906H67.8928C70.2794 54.5906 71.3598 56.026 71.3598 57.7365C71.3598 59.447 70.2794 60.8903 67.8928 60.8903H66.9434V54.5906ZM67.9392 60.2723C69.7997 60.2723 70.7349 59.1958 70.7349 57.7385C70.7349 56.2812 69.8017 55.2106 67.9392 55.2106H67.5683V60.2723H67.9392Z" fill="white"/>
    <path d="M72.6035 54.6065H75.9455V55.2026H73.2284V57.3557H75.7298V57.9199H73.2284V60.2943H75.9455V60.8903H72.6035V54.6065Z" fill="white"/>
    <path d="M76.7115 58.8748H77.3283C77.3364 59.752 77.8846 60.4179 78.8481 60.4179C79.7129 60.4179 80.3156 59.8916 80.3156 59.1579C80.3156 58.2947 79.598 58.0654 78.7332 57.8302C77.806 57.563 77.0662 57.1583 77.0662 56.0898C77.0662 55.1667 77.7919 54.463 78.8421 54.463C80.0011 54.463 80.6865 55.2265 80.6945 56.3729L80.0837 56.3649C80.0757 55.5714 79.6665 55.0431 78.8401 55.0431C78.1225 55.0431 77.675 55.4777 77.675 56.0977C77.675 56.8374 78.193 57.0746 78.9328 57.2819C79.9124 57.573 80.9404 57.8701 80.9404 59.1679C80.9404 60.2444 80.0676 61 78.8481 61C77.544 61 76.7175 60.1069 76.7095 58.8768L76.7115 58.8748Z" fill="white"/>
    <path d="M82.1075 54.5906H83.0569C85.4415 54.5906 86.5239 56.026 86.5239 57.7365C86.5239 59.447 85.4435 60.8903 83.0569 60.8903H82.1075V54.5906ZM83.1033 60.2723C84.9638 60.2723 85.899 59.1958 85.899 57.7385C85.899 56.2812 84.9658 55.2106 83.1033 55.2106H82.7324V60.2723H83.1033Z" fill="white"/>
    <path d="M87.7676 54.6065H91.1096V55.2026H88.3925V57.3557H90.894V57.9199H88.3925V60.2943H91.1096V60.8903H87.7676V54.6065Z" fill="white"/>
    <path d="M95.4736 55.2106L94.4859 55.2026L94.6794 54.5986L96.0924 54.6065V60.8903H95.4756V55.2086L95.4736 55.2106Z" fill="white"/>
    <path d="M102.013 56.8135C102.021 57.3936 101.898 57.8142 101.271 58.7153L99.7509 60.8923H99.0475L100.444 58.9067C100.182 58.9984 99.9122 59.0523 99.6723 59.0523C98.2674 59.0523 97.3341 58.0674 97.3341 56.7995C97.3341 55.5316 98.2835 54.5009 99.6723 54.5009C101.061 54.5009 101.996 55.5316 102.013 56.8135ZM99.6723 58.508C100.654 58.508 101.394 57.7823 101.394 56.8135C101.394 55.8446 100.652 55.1109 99.6723 55.1109C98.6927 55.1109 97.9509 55.8366 97.9509 56.8135C97.9509 57.7903 98.6927 58.508 99.6723 58.508Z" fill="white"/>
    <path d="M107.695 56.8135C107.703 57.3936 107.58 57.8142 106.953 58.7153L105.433 60.8923H104.73L106.127 58.9067C105.865 58.9984 105.594 59.0523 105.355 59.0523C103.95 59.0523 103.014 58.0674 103.014 56.7995C103.014 55.5316 103.964 54.5009 105.355 54.5009C106.745 54.5009 107.679 55.5316 107.693 56.8135H107.695ZM105.357 58.508C106.336 58.508 107.078 57.7823 107.078 56.8135C107.078 55.8446 106.336 55.1109 105.357 55.1109C104.377 55.1109 103.635 55.8366 103.635 56.8135C103.635 57.7903 104.377 58.508 105.357 58.508Z" fill="white"/>
    <path d="M113.377 56.8135C113.385 57.3936 113.262 57.8142 112.635 58.7153L111.115 60.8923H110.414L111.811 58.9067C111.549 58.9984 111.279 59.0523 111.039 59.0523C109.634 59.0523 108.701 58.0674 108.701 56.7995C108.701 55.5316 109.65 54.5009 111.039 54.5009C112.428 54.5009 113.363 55.5316 113.379 56.8135H113.377ZM111.039 58.508C112.021 58.508 112.76 57.7823 112.76 56.8135C112.76 55.8446 112.019 55.1109 111.039 55.1109C110.059 55.1109 109.317 55.8366 109.317 56.8135C109.317 57.7903 110.059 58.508 111.039 58.508Z" fill="white"/>
    <path fill-rule="evenodd" clip-rule="evenodd" d="M0 9.18249C0 4.32667 3.69531 0 8.64935 0H171.351C176.305 0 180 4.32666 180 9.18249V50.8825C180 55.7388 176.304 60.065 171.349 60.065H171.346L118.116 60.0072L118.12 55.6213L171.349 55.6791H171.351C173.473 55.6779 175.565 53.7127 175.565 50.8825V9.18249C175.565 6.35103 173.472 4.38591 171.351 4.38591H8.64935C6.52828 4.38591 4.43454 6.35102 4.43454 9.18249V50.8247C4.43454 53.6553 6.52701 55.6201 8.64742 55.6213H8.64935L61.8796 55.5635L61.8844 59.9494L8.65179 60.0072H8.64935C3.69531 60.0072 0 55.6805 0 50.8247V9.18249Z" fill="white"/>
</svg>