<svg width="168" height="168" viewBox="0 0 168 168" fill="none" xmlns="http://www.w3.org/2000/svg">
<path fill-rule="evenodd" clip-rule="evenodd" d="M84 0C130.392 0 168 37.6081 168 84C168 130.392 130.392 168 84 168C37.6081 168 0 130.392 0 84C0 37.6081 37.6081 0 84 0ZM41 139.34H68.4102V77.0098L101.39 139.34H127.92V49.9697C127.72 49.9197 127.51 49.8696 127.31 49.8096C124.82 49.0196 122.96 47.1802 122.06 44.9307C122.063 44.9302 122.067 44.9301 122.07 44.9297L122.06 44.9307C120.863 45.0888 119.616 45.009 118.39 44.6201C114.7 43.4501 112.4 39.9692 112.55 36.2793C112.45 36.2493 112.35 36.2292 112.25 36.1992C108.5 35.0092 106.19 31.4296 106.42 27.6797H100.51V89.4697L67.9404 27.6797H41V139.34Z" fill="white"/>
</svg>
